<svg  viewBox="0 0 32 32" fill="none" xmlns="http://www.w3.org/2000/svg">
<g clip-path="url(#clip0_209_787)">
<path d="M16 3.75C16.5178 3.75 16.9375 3.33032 16.9375 2.8125V0.9375C16.9375 0.419678 16.5178 0 16 0C15.4822 0 15.0625 0.419678 15.0625 0.9375V2.8125C15.0625 3.33032 15.4822 3.75 16 3.75Z" fill="white"/>
<path d="M20.4128 5.35034L22.2878 3.47534C22.6541 3.10913 22.6541 2.51562 22.2878 2.14966C21.9219 1.78345 21.3281 1.78345 20.9622 2.14966L19.0872 4.02466C18.7209 4.39062 18.7209 4.98413 19.0872 5.35034C19.4531 5.71655 20.0469 5.71655 20.4128 5.35034Z" fill="white"/>
<path d="M11.5872 5.35034C11.9531 5.71655 12.5469 5.71655 12.9128 5.35034C13.2791 4.98413 13.2791 4.39062 12.9128 4.02466L11.0378 2.14966C10.6719 1.78345 10.0784 1.78345 9.71216 2.14966C9.34595 2.51562 9.34595 3.10913 9.71216 3.47534L11.5872 5.35034Z" fill="white"/>
<path d="M8.4375 13.25C8.4375 11.1821 6.75537 9.5 4.6875 9.5C2.61963 9.5 0.9375 11.1821 0.9375 13.25C0.9375 15.3179 2.61963 17 4.6875 17C6.75537 17 8.4375 15.3179 8.4375 13.25ZM4.6875 15.125C3.65356 15.125 2.8125 14.2839 2.8125 13.25C2.8125 12.2161 3.65356 11.375 4.6875 11.375C5.72144 11.375 6.5625 12.2161 6.5625 13.25C6.5625 14.2839 5.72144 15.125 4.6875 15.125Z" fill="white"/>
<path d="M31.0625 13.25C31.0625 11.1821 29.3804 9.5 27.3125 9.5C25.2446 9.5 23.5625 11.1821 23.5625 13.25C23.5625 15.3179 25.2446 17 27.3125 17C29.3804 17 31.0625 15.3179 31.0625 13.25ZM27.3125 15.125C26.2786 15.125 25.4375 14.2839 25.4375 13.25C25.4375 12.2161 26.2786 11.375 27.3125 11.375C28.3464 11.375 29.1875 12.2161 29.1875 13.25C29.1875 14.2839 28.3464 15.125 27.3125 15.125Z" fill="white"/>
<path d="M27.3125 17H25.4375C21.8464 17 18.8125 13.9661 18.8125 10.375C18.8125 8.82422 17.5508 7.5625 16 7.5625C14.4492 7.5625 13.1875 8.82422 13.1875 10.375C13.1875 13.9661 10.1536 17 6.5625 17H4.6875C2.10278 17 0 19.1028 0 21.6875V31.0625C0 31.5803 0.419678 32 0.9375 32H8.4375C8.95508 32 9.37476 31.5806 9.375 31.063L9.37988 22.2959C11.8806 21.6992 14.1599 20.3037 15.8633 18.3115C15.9084 18.2588 15.9526 18.2053 15.9968 18.1519C17.7056 20.2153 20.04 21.6802 22.6201 22.2957L22.625 31.063C22.6252 31.5806 23.0449 32 23.5625 32H31.0625C31.5803 32 32 31.5803 32 31.0625V21.6875C32 19.1028 29.8972 17 27.3125 17ZM8.28662 20.606C7.83569 20.6821 7.50562 21.0725 7.50537 21.5298L7.50049 30.125H1.875V21.6875C1.875 20.1367 3.13672 18.875 4.6875 18.875H6.5625C8.81299 18.875 10.9421 17.9854 12.5574 16.3699C14.1729 14.7546 15.0625 12.6255 15.0625 10.375C15.0625 9.85815 15.4832 9.4375 16 9.4375C16.5168 9.4375 16.9375 9.85815 16.9375 10.375C16.9375 15.3745 13.2185 19.773 8.28662 20.606ZM30.125 30.125H24.4995L24.4946 21.5298C24.4944 21.0725 24.1643 20.6821 23.7134 20.606C21.1006 20.1646 18.7283 18.6978 17.1208 16.5498C17.4932 15.9172 17.8071 15.2546 18.0598 14.5706C18.4336 15.2188 18.8965 15.8237 19.4426 16.3701C21.0579 17.9854 23.187 18.875 25.4375 18.875H27.3125C28.8633 18.875 30.125 20.1367 30.125 21.6875V30.125Z" fill="white"/>
</g>
<defs>
<clipPath id="clip0_209_787">
<rect width="32" height="32" fill="white"/>
</clipPath>
</defs>
</svg>
