<svg width="80" height="80" viewBox="0 0 80 80" fill="none" xmlns="http://www.w3.org/2000/svg">
<mask id="mask0_17345_2042" style="mask-type:luminance" maskUnits="userSpaceOnUse" x="0" y="0" width="80" height="80">
<path d="M78.5 1.5V78.5H1.5V1.5H78.5Z" fill="white" stroke="#66B0C0" stroke-width="3"/>
<path d="M41.5625 27.5625C41.5735 27.5625 41.5805 27.5609 41.5859 27.5586C41.5924 27.5559 41.5996 27.5508 41.6064 27.5439C41.6133 27.5371 41.6184 27.5299 41.6211 27.5234C41.6234 27.518 41.625 27.511 41.625 27.5C41.625 27.489 41.6234 27.482 41.6211 27.4766C41.6184 27.4701 41.6133 27.4629 41.6064 27.4561C41.5996 27.4492 41.5924 27.4441 41.5859 27.4414C41.5805 27.4391 41.5735 27.4375 41.5625 27.4375C41.5515 27.4375 41.5445 27.4391 41.5391 27.4414C41.5326 27.4441 41.5254 27.4492 41.5186 27.4561C41.5117 27.4629 41.5066 27.4701 41.5039 27.4766C41.5016 27.482 41.5 27.489 41.5 27.5C41.5 27.511 41.5016 27.518 41.5039 27.5234C41.5066 27.5299 41.5117 27.5371 41.5186 27.5439C41.5254 27.5508 41.5326 27.5559 41.5391 27.5586C41.5445 27.5609 41.5515 27.5625 41.5625 27.5625Z" fill="white" stroke="#66B0C0" stroke-width="3"/>
<path d="M41.5625 36.9375C41.5735 36.9375 41.5805 36.9359 41.5859 36.9336C41.5924 36.9309 41.5996 36.9258 41.6064 36.9189C41.6133 36.9121 41.6184 36.9049 41.6211 36.8984C41.6234 36.893 41.625 36.886 41.625 36.875C41.625 36.864 41.6234 36.857 41.6211 36.8516C41.6184 36.8451 41.6133 36.8379 41.6064 36.8311C41.5996 36.8242 41.5924 36.8191 41.5859 36.8164C41.5805 36.8141 41.5735 36.8125 41.5625 36.8125C41.5515 36.8125 41.5445 36.8141 41.5391 36.8164C41.5326 36.8191 41.5254 36.8242 41.5186 36.8311C41.5117 36.8379 41.5066 36.8451 41.5039 36.8516C41.5016 36.857 41.5 36.864 41.5 36.875C41.5 36.886 41.5016 36.893 41.5039 36.8984C41.5066 36.9049 41.5117 36.9121 41.5186 36.9189C41.5254 36.9258 41.5326 36.9309 41.5391 36.9336C41.5445 36.9359 41.5515 36.9375 41.5625 36.9375Z" fill="white" stroke="#66B0C0" stroke-width="3"/>
<path d="M19.6875 72.25C19.6985 72.25 19.7055 72.2484 19.7109 72.2461C19.7174 72.2434 19.7246 72.2383 19.7314 72.2314C19.7383 72.2246 19.7434 72.2174 19.7461 72.2109C19.7484 72.2055 19.75 72.1985 19.75 72.1875C19.75 72.1765 19.7484 72.1695 19.7461 72.1641C19.7434 72.1576 19.7383 72.1504 19.7314 72.1436C19.7246 72.1367 19.7174 72.1316 19.7109 72.1289C19.7055 72.1266 19.6985 72.125 19.6875 72.125C19.6765 72.125 19.6695 72.1266 19.6641 72.1289C19.6576 72.1316 19.6504 72.1367 19.6436 72.1436C19.6367 72.1504 19.6316 72.1576 19.6289 72.1641C19.6266 72.1695 19.625 72.1765 19.625 72.1875C19.625 72.1985 19.6266 72.2055 19.6289 72.2109C19.6316 72.2174 19.6367 72.2246 19.6436 72.2314C19.6504 72.2383 19.6576 72.2434 19.6641 72.2461C19.6695 72.2484 19.6765 72.25 19.6875 72.25Z" fill="white" stroke="#66B0C0" stroke-width="3"/>
</mask>
<g mask="url(#mask0_17345_2042)">
<mask id="mask1_17345_2042" style="mask-type:luminance" maskUnits="userSpaceOnUse" x="0" y="-1" width="80" height="81">
<path d="M78.5 78.4998V1.49976H1.5V78.4998H78.5Z" fill="white" stroke="white" stroke-width="3"/>
</mask>
<g mask="url(#mask1_17345_2042)">
<path d="M41.5625 27.5625C41.5735 27.5625 41.5805 27.5609 41.5859 27.5586C41.5924 27.5559 41.5996 27.5508 41.6064 27.5439C41.6133 27.5371 41.6184 27.5299 41.6211 27.5234C41.6234 27.518 41.625 27.511 41.625 27.5C41.625 27.489 41.6234 27.482 41.6211 27.4766C41.6184 27.4701 41.6133 27.4629 41.6064 27.4561C41.5996 27.4492 41.5924 27.4441 41.5859 27.4414C41.5805 27.4391 41.5735 27.4375 41.5625 27.4375C41.5515 27.4375 41.5445 27.4391 41.5391 27.4414C41.5326 27.4441 41.5254 27.4492 41.5186 27.4561C41.5117 27.4629 41.5066 27.4701 41.5039 27.4766C41.5016 27.482 41.5 27.489 41.5 27.5C41.5 27.511 41.5016 27.518 41.5039 27.5234C41.5066 27.5299 41.5117 27.5371 41.5186 27.5439C41.5254 27.5508 41.5326 27.5559 41.5391 27.5586C41.5445 27.5609 41.5515 27.5625 41.5625 27.5625Z" fill="#66B0C0" stroke="#66B0C0" stroke-width="3"/>
<path d="M41.5625 36.9375C41.5735 36.9375 41.5805 36.9359 41.5859 36.9336C41.5924 36.9309 41.5996 36.9258 41.6064 36.9189C41.6133 36.9121 41.6184 36.9049 41.6211 36.8984C41.6234 36.893 41.625 36.886 41.625 36.875C41.625 36.864 41.6234 36.857 41.6211 36.8516C41.6184 36.8451 41.6133 36.8379 41.6064 36.8311C41.5996 36.8242 41.5924 36.8191 41.5859 36.8164C41.5805 36.8141 41.5735 36.8125 41.5625 36.8125C41.5515 36.8125 41.5445 36.8141 41.5391 36.8164C41.5326 36.8191 41.5254 36.8242 41.5186 36.8311C41.5117 36.8379 41.5066 36.8451 41.5039 36.8516C41.5016 36.857 41.5 36.864 41.5 36.875C41.5 36.886 41.5016 36.893 41.5039 36.8984C41.5066 36.9049 41.5117 36.9121 41.5186 36.9189C41.5254 36.9258 41.5326 36.9309 41.5391 36.9336C41.5445 36.9359 41.5515 36.9375 41.5625 36.9375Z" fill="#66B0C0" stroke="#66B0C0" stroke-width="3"/>
<path d="M19.6875 72.25C19.6985 72.25 19.7055 72.2484 19.7109 72.2461C19.7174 72.2434 19.7246 72.2383 19.7314 72.2314C19.7383 72.2246 19.7434 72.2174 19.7461 72.2109C19.7484 72.2055 19.75 72.1985 19.75 72.1875C19.75 72.1765 19.7484 72.1695 19.7461 72.1641C19.7434 72.1576 19.7383 72.1504 19.7314 72.1436C19.7246 72.1367 19.7174 72.1316 19.7109 72.1289C19.7055 72.1266 19.6985 72.125 19.6875 72.125C19.6765 72.125 19.6695 72.1266 19.6641 72.1289C19.6576 72.1316 19.6504 72.1367 19.6436 72.1436C19.6367 72.1504 19.6316 72.1576 19.6289 72.1641C19.6266 72.1695 19.625 72.1765 19.625 72.1875C19.625 72.1985 19.6266 72.2055 19.6289 72.2109C19.6316 72.2174 19.6367 72.2246 19.6436 72.2314C19.6504 72.2383 19.6576 72.2434 19.6641 72.2461C19.6695 72.2484 19.6765 72.25 19.6875 72.25Z" fill="#66B0C0" stroke="#66B0C0" stroke-width="3"/>
<path d="M47.8125 18.125H35.3125C33.5859 18.125 32.1875 19.5234 32.1875 21.25V43.125C32.1875 44.8516 33.5859 46.25 35.3125 46.25H41.5625V55.625L54.0625 46.25H72.8125C74.5391 46.25 75.9375 44.8516 75.9375 43.125V21.25C75.9375 19.5234 74.5391 18.125 72.8125 18.125H47.8125Z" stroke="#66B0C0" stroke-width="3" stroke-miterlimit="10" stroke-linecap="round" stroke-linejoin="round"/>
<path d="M47.8125 27.5H66.5625" stroke="#66B0C0" stroke-width="3" stroke-miterlimit="10" stroke-linecap="round" stroke-linejoin="round"/>
<path d="M47.8125 36.875H66.5625" stroke="#66B0C0" stroke-width="3" stroke-miterlimit="10" stroke-linecap="round" stroke-linejoin="round"/>
<path d="M47.8125 50.9375V72.1875C47.8125 75.6391 45.0141 78.4375 41.5625 78.4375H10.3125C6.86094 78.4375 4.0625 75.6391 4.0625 72.1875V7.8125C4.0625 4.36094 6.86094 1.5625 10.3125 1.5625H41.5625C45.0141 1.5625 47.8125 4.36094 47.8125 7.8125V18.125" stroke="#66B0C0" stroke-width="3" stroke-miterlimit="10" stroke-linecap="round" stroke-linejoin="round"/>
<path d="M25.9375 72.1875H32.1875" stroke="#66B0C0" stroke-width="3" stroke-miterlimit="10" stroke-linecap="round" stroke-linejoin="round"/>
<path d="M47.8125 7.81226H4.0625" stroke="#66B0C0" stroke-width="3" stroke-miterlimit="10" stroke-linecap="round" stroke-linejoin="round"/>
<path d="M4.0625 65.9373H47.8125" stroke="#66B0C0" stroke-width="3" stroke-miterlimit="10" stroke-linecap="round" stroke-linejoin="round"/>
</g>
</g>
</svg>
