<svg width="32" height="32" viewBox="0 0 32 32" fill="none" xmlns="http://www.w3.org/2000/svg">
<path d="M19.8688 0H26.8168C27.2492 0 27.5997 0.350535 27.5997 0.782875V31.2171C27.5997 31.6495 27.2492 32 26.8168 32H19.8688C19.4365 32 19.0859 31.6495 19.0859 31.2171V0.782875C19.0859 0.350535 19.4365 0 19.8688 0Z" fill="#C2F970"/>
<path d="M5.18912 0H12.1371C12.5695 0 12.92 0.350535 12.92 0.782875V31.2171C12.92 31.6495 12.5695 32 12.1371 32H5.18912C4.75679 32 4.40625 31.6495 4.40625 31.2171V0.782875C4.40625 0.350535 4.75679 0 5.18912 0Z" fill="#C2F970"/>
</svg>
