<svg width="40" height="40" viewBox="0 0 40 40" fill="none" xmlns="http://www.w3.org/2000/svg">
<path fill-rule="evenodd" clip-rule="evenodd" d="M12.5026 12.3333C9.64914 12.3333 7.33594 14.6465 7.33594 17.4999C7.33594 20.3534 9.64914 22.6666 12.5026 22.6666C13.1311 22.6666 13.7334 22.5544 14.2905 22.3489C13.4611 23.6231 12.3026 24.6488 10.9399 25.1848C10.1074 25.5058 9.2305 25.6667 8.3361 25.6667C7.78382 25.6667 7.3361 26.1144 7.3361 26.6668C7.3361 27.2189 7.78382 27.6668 8.3361 27.6668C9.47405 27.6668 10.5963 27.4613 11.6629 27.0496L11.6684 27.0474C15.3714 25.5927 17.7216 21.5494 17.6694 17.6596C17.6694 17.6301 17.6692 17.6008 17.6687 17.5714L17.6692 17.4999C17.6692 17.1283 17.6301 16.7658 17.5554 16.4163L17.5532 16.4045C17.5477 16.3735 17.5407 16.3431 17.5324 16.3134C16.9962 14.0318 14.9478 12.3333 12.5026 12.3333ZM27.5026 12.3333C24.6491 12.3333 22.3359 14.6465 22.3359 17.4999C22.3359 20.3534 24.6491 22.6666 27.5026 22.6666C28.1311 22.6666 28.7334 22.5544 29.2906 22.3489C28.4611 23.6231 27.3026 24.6488 25.9399 25.1848C25.1074 25.5058 24.2306 25.6667 23.3361 25.6667C22.7839 25.6667 22.3361 26.1144 22.3361 26.6668C22.3361 27.2189 22.7839 27.6668 23.3361 27.6668C24.4741 27.6668 25.5962 27.4613 26.6629 27.0496L26.6684 27.0474C30.3714 25.5927 32.7216 21.5494 32.6694 17.6596C32.6694 17.6301 32.6692 17.6008 32.6687 17.5714L32.6692 17.4999C32.6692 17.1283 32.6301 16.7658 32.5554 16.4163L32.5532 16.4045C32.5477 16.3735 32.5407 16.3431 32.5324 16.3134C31.9962 14.0318 29.9477 12.3333 27.5026 12.3333Z" fill="#C2F970"/>
</svg>
