<svg viewBox="0 0 32 32" fill="none" xmlns="http://www.w3.org/2000/svg">
<g clip-path="url(#clip0_209_782)">
<path d="M16 0C7.17749 0 0 7.17749 0 16C0 24.8225 7.17749 32 16 32C24.8225 32 32 24.8225 32 16C32 7.17749 24.8225 0 16 0ZM16 30.125C8.21143 30.125 1.875 23.7886 1.875 16C1.875 8.21143 8.21143 1.875 16 1.875C23.7886 1.875 30.125 8.21143 30.125 16C30.125 23.7886 23.7886 30.125 16 30.125Z" fill="white"/>
<path d="M20.6801 11.6416C21.3075 11.0142 22.1417 10.6685 23.0292 10.6685C23.9164 10.6685 24.7506 11.0142 25.3788 11.6421C25.745 12.0081 26.3385 12.0078 26.7045 11.6416C27.0704 11.2754 27.0702 10.6816 26.704 10.3157C25.7223 9.33423 24.4171 8.79346 23.0292 8.79346C21.641 8.79346 20.3358 9.33423 19.3541 10.3157L19.3536 10.3162C18.9874 10.6824 18.9877 11.2756 19.3539 11.6418C19.7201 12.0081 20.3138 12.0076 20.6801 11.6416Z" fill="white"/>
<path d="M6.6217 11.6416C7.24939 11.0142 8.08362 10.6685 8.97083 10.6685C9.85828 10.6685 10.6925 11.0142 11.3207 11.6421C11.6869 12.0081 12.2804 12.0078 12.6464 11.6416C13.0123 11.2754 13.0121 10.6816 12.6459 10.3157C11.6642 9.33423 10.359 8.79346 8.97083 8.79346C7.58289 8.79346 6.27771 9.33423 5.29602 10.3157L5.29553 10.3162C4.92932 10.6824 4.92957 11.2756 5.29578 11.6418C5.66199 12.0081 6.25574 12.0076 6.6217 11.6416Z" fill="white"/>
<path d="M26.0415 15.1875H5.95801C5.44043 15.1875 5.02051 15.6072 5.02051 16.125C5.02051 22.1887 9.93604 27.1042 15.9998 27.1042C22.0635 27.1042 26.979 22.1887 26.979 16.125C26.979 15.6072 26.5591 15.1875 26.0415 15.1875ZM15.9998 25.2292C11.2529 25.2292 7.40601 21.6187 6.94287 17.0625H25.0566C24.5935 21.6184 20.7471 25.2292 15.9998 25.2292Z" fill="white"/>
</g>
<defs>
<clipPath id="clip0_209_782">
<rect width="32" height="32" fill="white"/>
</clipPath>
</defs>
</svg>
